<?xml version="1.0"?>
<svg id="Layer_2" data-name="Layer 2" xmlns="http://www.w3.org/2000/svg" xmlns:xlink="http://www.w3.org/1999/xlink" viewBox="0 0 1346.29 309.64">
  <defs>
    
    <clipPath id="clippath">
      <rect class="cls-1" width="416.04" height="309.64"></rect>
    </clipPath>
    <clipPath id="clippath-1">
      <path class="cls-1" d="M45.54,208.21c0-23.26,14.21-43.19,34.42-51.61.24,0,.48-.04.71-.13,21.86-8.86,44.83-2.68,61.17,13.55,13.05,12.96,26.02,26.03,39,39.09-4.33,5.09-37.02,37.03-39.63,39.17-11.44,9.35-24.76,15.82-39.77,15.82-30.87,0-55.89-25.02-55.89-55.89M278.2,251.17c-.08-.07-.61-.57-.61-.57l-41.41-41.64c2.45-2.47,39.16-39.48,46.49-46.65,15.66-10.88,35.65-12.82,52.86-5.84.17.07.35.1.52.12,20.23,8.41,34.45,28.35,34.45,51.62,0,30.87-25.02,55.89-55.89,55.89-13.92,0-26.62-4.51-36.41-12.93M167.07,139.47c-9.27-9.98-14.94-23.34-14.94-38.03,0-30.87,25.02-55.89,55.89-55.89s55.89,25.02,55.89,55.89c0,14.58-5.58,27.85-14.73,37.8l-40.78,41.79-41.33-41.55ZM112.21,101.43c0,3.95.25,7.85.71,11.68-4.82-.57-9.68-.77-14.53-.6,0-.02,0-.04,0-.06-51.5,1.61-92.76,43.86-92.76,95.76s42.9,95.81,95.81,95.81c25.26,0,47.93-8.66,65.36-25.76l.04.04,41.53-41.53c.21.21.42.42.63.64,11.93,11.93,23.6,24.12,35.71,35.85,19.5,18.9,42.3,30.77,69.9,30.77,52.91,0,95.81-42.9,95.81-95.81s-41.26-94.15-92.76-95.76c0,.02,0,.04,0,.06-4.85-.16-9.7.05-14.53.62.47-3.83.71-7.74.71-11.7,0-52.91-42.89-95.81-95.81-95.81s-95.81,42.9-95.81,95.81"></path>
    </clipPath>
    <clipPath id="clippath-2">
      <rect class="cls-1" x="5.62" y="5.62" width="404.79" height="298.4"></rect>
    </clipPath>
  </defs>
  <g id="Layer_2-2" data-name="Layer 2">
    <g>
      <path class="cls-5" d="M465.62,48.18h49.35v13.29h-33.23v11.65h28.5v12.56h-28.5v13.93h33.78v13.66h-49.89V48.18Z"></path>
      <path class="cls-5" d="M521.45,48.14h27.77c18.03,0,30.14,13.02,30.14,32.96,0,11.47-4.01,20.67-11.29,26.22-5.1,3.82-11.65,5.92-19.85,5.92h-26.77V48.14ZM547.03,99.67c10.56,0,16.03-6.65,16.03-18.57s-5.74-19.48-15.84-19.48h-9.65v38.06h9.47Z"></path>
      <path class="cls-5" d="M583.9,48.18h31.41c6.74,0,11.75,1.64,15.21,4.46,3.73,3.1,5.65,7.28,5.65,12.47,0,6.46-3.37,10.56-9.11,12.75v.27c7.1,2.18,11.65,8.19,11.65,15.93,0,6.56-2.37,11.29-6.65,14.57-3.82,3-9.2,4.64-16.02,4.64h-32.14V48.18ZM612.95,73.95c4.64,0,7.83-2.28,7.83-6.56s-3-6.46-7.74-6.46h-13.2v13.02h13.11ZM614.22,100.35c5.28,0,8.56-3,8.56-7.65,0-5.19-3.82-7.83-8.74-7.83h-14.2v15.48h14.38Z"></path>
      <g id="Loop">
        <g class="cls-6">
          <g class="cls-3">
            <g class="cls-4">
              <image width="844" height="622" transform="translate(5.45 5.55) scale(.48)"></image>
            </g>
          </g>
        </g>
      </g>
      <path class="cls-2" d="M466.04,155.96h42.34c11.75,0,19.59,3.31,25.31,9.34,4.82,5.12,7.53,11.9,7.53,20.79,0,19.89-11.6,30.74-34.2,30.74h-30.88v46.86h-10.1v-107.72ZM506.27,208.24c17.48,0,24.71-8.29,24.71-21.85s-8.29-21.55-23.81-21.55h-31.04v43.39h30.13Z"></path>
      <path class="cls-5" d="M547.45,209.75c0-32.09,19.59-56.05,50.02-56.05s50.32,23.96,50.32,56.05-19.74,56.05-50.32,56.05-50.02-23.96-50.02-56.05ZM637.25,209.75c0-26.06-13.86-47.01-39.78-47.01s-39.47,20.94-39.47,47.01,13.71,47.01,39.47,47.01,39.78-20.94,39.78-47.01Z"></path>
      <path class="cls-5" d="M654.99,228.73h10.1c1.05,18.23,13.41,28.48,33.6,28.48,15.82,0,27.57-7.99,27.57-22.6s-10.09-18.83-33.15-23.5c-19.89-3.92-33.9-9.94-33.9-28.78,0-17.18,14.46-28.47,36.01-28.47,23.96,0,36.01,12.96,37.97,31.49h-9.79c-1.81-15.22-12.65-23.05-28.02-23.05-16.42,0-26.37,7.83-26.37,19.74,0,12.81,9.94,16.72,29.23,20.34,20.94,4.07,38.27,9.19,38.27,31.79,0,19.13-15.37,31.49-37.97,31.49-28.32,0-42.34-15.97-43.54-36.91Z"></path>
      <path class="cls-5" d="M774.85,165h-36.46v-9.04h82.87v9.04h-36.31v98.69h-10.1v-98.69Z"></path>
      <path class="cls-5" d="M927.06,155.96h48.06c19.44,0,30.58,11.15,30.58,29.08,0,13.26-5.73,22-18.08,25.91v.45c11.15,3.77,14.77,11.9,15.52,28.63.75,17.33,2.71,21.69,4.67,23.05v.6h-10.85c-2.41-1.66-3.01-5.73-3.92-24.11-.91-18.68-7.38-23.96-23.05-23.96h-32.84v48.06h-10.1v-107.72ZM971.66,207.04c15.67,0,23.65-7.68,23.65-21.09s-6.03-21.09-22.3-21.09h-35.86v42.19h34.5Z"></path>
      <path class="cls-5" d="M1019.95,155.96h73.22v8.89h-63.13v38.72h57.86v8.74h-57.86v42.04h64.78v9.34h-74.88v-107.72Z"></path>
      <path class="cls-5" d="M1101.98,228.73h10.1c1.05,18.23,13.41,28.48,33.6,28.48,15.82,0,27.57-7.99,27.57-22.6s-10.1-18.83-33.15-23.5c-19.89-3.92-33.9-9.94-33.9-28.78,0-17.18,14.46-28.47,36.01-28.47,23.96,0,36.01,12.96,37.97,31.49h-9.79c-1.81-15.22-12.65-23.05-28.02-23.05-16.42,0-26.37,7.83-26.37,19.74,0,12.81,9.94,16.72,29.23,20.34,20.94,4.07,38.27,9.19,38.27,31.79,0,19.13-15.37,31.49-37.97,31.49-28.32,0-42.34-15.97-43.54-36.91Z"></path>
      <path class="cls-2" d="M1201.64,263.93c-2.21-.02-3.3-2.7-1.72-4.25l105.63-103.51c3.68-3.6,9.48-4.13,13.81-.97,2.82,2.05,4.35,5.45,4.35,8.94v97.28c0,1.37-1.11,2.48-2.48,2.48h-4.57c-1.37,0-2.48-1.11-2.48-2.48v-97.61c0-.51-.24-.87-.71-1.06-.46-.19-.88-.12-1.26.24l-102.35,100.29c-.47.46-1.1.71-1.75.71l-6.48-.05Z"></path>
      <path class="cls-2" d="M1337.77,153.55h6.71c1.01,0,1.82.81,1.82,1.82v106.7c0,1-.81,1.81-1.81,1.81h-6.71c-1,0-1.82-.81-1.82-1.82v-106.7c0-1,.81-1.81,1.81-1.81Z"></path>
      <g>
        <path class="cls-2" d="M830.12,208.48c.45-25.41,13.14-45.89,40.36-45.89,16.42,0,28.78,8.44,32.09,24.56h10.4c-3.92-21.85-20.34-33.3-42.49-33.3-32.21,0-50.36,23.54-50.9,54.63h10.54Z"></path>
        <path class="cls-2" d="M870.03,208.39v8.89h34.65v3.77c0,18.68-10.7,35.86-35.56,35.86-23.1,0-36.27-16.67-38.63-39.39h-10.58c2.63,28.28,20.11,48.28,49.06,48.28,14.92,0,23.61-2.78,32.6-12.13,15.95-16.57,13.05-45.28,13.05-45.28h-44.6Z"></path>
      </g>
      <path class="cls-5" d="M1198.52,136.39c0,5.66-4.44,10.1-10.23,10.1s-10.29-4.44-10.29-10.1,4.57-9.98,10.29-9.98,10.23,4.44,10.23,9.98ZM1180.56,136.39c0,4.44,3.29,7.97,7.79,7.97s7.61-3.53,7.61-7.91-3.23-8.04-7.67-8.04-7.73,3.59-7.73,7.97ZM1186.71,141.62h-2.31v-9.98c.91-.18,2.19-.3,3.83-.3,1.89,0,2.74.3,3.47.73.55.43.97,1.22.97,2.19,0,1.1-.85,1.95-2.07,2.31v.12c.97.37,1.52,1.1,1.83,2.43.3,1.52.49,2.13.73,2.5h-2.5c-.3-.37-.49-1.28-.79-2.44-.18-1.1-.79-1.58-2.07-1.58h-1.1v4.02ZM1186.77,135.96h1.1c1.28,0,2.31-.43,2.31-1.46,0-.91-.67-1.52-2.13-1.52-.61,0-1.04.06-1.28.12v2.86Z"></path>
    </g>
  </g>
</svg>