<svg xmlns="http://www.w3.org/2000/svg" viewBox="0 0 416 310">
  <path fill="#232A2C" fill-rule="evenodd" d="M45.54,208.21c0-23.26,14.21-43.19,34.42-51.61.24,0,.48-.04,.71-.13,21.86-8.86,44.83-2.68,61.17,13.55,13.05,12.96,26.02,26.03,39,39.09-4.33,5.09-37.02,37.03-39.63,39.17-11.44,9.35-24.76,15.82-39.77,15.82-30.87,0-55.89-25.02-55.89-55.89M278.2,251.17c-.08-.07-.61-.57-.61-.57l-41.41-41.64c2.45-2.47,39.16-39.48,46.49-46.65,15.66-10.88,35.65-12.82,52.86-5.84.17.07.35.1.52.12,20.23,8.41,34.45,28.35,34.45,51.62,0,30.87-25.02,55.89-55.89,55.89-13.92,0-26.62-4.51-36.41-12.93M167.07,139.47c-9.27-9.98-14.94-23.34-14.94-38.03,0-30.87,25.02-55.89,55.89-55.89s55.89,25.02,55.89,55.89c0,14.58-5.58,27.85-14.73,37.8l-40.78,41.79-41.33-41.55ZM112.21,101.43c0,3.95.25,7.85.71,11.68-4.82-.57-9.68-.77-14.53-.6,0-.02,0-.04,0-.06-51.5,1.61-92.76,43.86-92.76,95.76s42.9,95.81,95.81,95.81c25.26,0,47.93-8.66,65.36-25.76l.04.04,41.53-41.53c.21.21.42.42.63.64,11.93,11.93,23.6,24.12,35.71,35.85,19.5,18.9,42.3,30.77,69.9,30.77,52.91,0,95.81-42.9,95.81-95.81s-41.26-94.15-92.76-95.76c0,.02,0,.04,0,.06-4.85-.16-9.7.05-14.53.62.47-3.83.71-7.74.71-11.7,0-52.91-42.89-95.81-95.81-95.81s-95.81,42.9-95.81,95.81"></path>
</svg>